<?xml version="1.0" encoding="UTF-8"?>
<!DOCTYPE svg PUBLIC "-//W3C//DTD SVG 1.1//EN" "http://www.w3.org/Graphics/SVG/1.1/DTD/svg11.dtd">
<!-- Creator: CorelDRAW 2019 (64-Bit) -->
<svg xmlns="http://www.w3.org/2000/svg" xml:space="preserve" width="130px" height="104px" version="1.1" style="shape-rendering:geometricPrecision; text-rendering:geometricPrecision; image-rendering:optimizeQuality; fill-rule:evenodd; clip-rule:evenodd"
viewBox="0 0 1.57 1.26"
 xmlns:xlink="http://www.w3.org/1999/xlink">
 <defs>
  <style type="text/css">
   <![CDATA[
    .fil0 {fill:#040404}
   ]]>
  </style>
 </defs>
 <g id="Capa_x0020_1">
  <metadata id="CorelCorpID_0Corel-Layer"/>
  <path class="fil0" d="M1.52 1.08c-0.1,0.05 -0.34,0.03 -0.47,0.03 -0.02,-0.02 -0.03,-0.05 -0.04,-0.08 -0.09,0.03 -0.13,0.05 -0.24,0.07 -0.09,0.01 -0.2,0.01 -0.29,0.01 -0.13,-0.01 -0.41,-0.07 -0.48,-0.13 0.04,-0.1 0.02,-0.04 0.05,-0.07 0.01,-0.01 0.03,-0.06 0.04,-0.08 0.04,-0.05 0.05,-0.11 0.14,-0.11 0.22,0.01 0.27,0.07 0.42,-0.04l0.2 -0.1c0.05,-0.03 0.12,0.03 0.19,0.05 0.22,0.06 0.29,-0.09 0.4,-0.07 0.08,0.12 0.05,0.22 0.05,0.33 0,0.04 0.01,0 0.02,0.04 0.01,0.02 0.01,0.12 0.01,0.15zm-0.01 0.14l0.02 -0.01c0,0.01 0,0.01 0,0.01 0,0 0.01,0 0.01,0 0.01,0 0.01,0 0.01,0 0,0 0,0 0,0 0,-0.01 0,-0.01 0,-0.01 0,0 0,0 0,0 -0.02,0 -0.03,-0.01 -0.03,-0.01 0,0 -0.01,-0.01 -0.01,-0.01 0,-0.01 0.01,-0.01 0.01,-0.02 0,0 0.01,0 0.02,0 0.01,0 0.02,0 0.02,0 0,0 0.01,0.01 0.01,0.01l-0.02 0.01c0,-0.01 0,-0.01 0,-0.01 0,0 -0.01,0 -0.01,0 0,0 -0.01,0 -0.01,0 0,0 0,0 0,0 0,0.01 0,0.01 0,0.01 0,0 0.01,0 0.02,0 0.01,0 0.01,0.01 0.02,0.01 0,0 0,0.01 0,0.01 0,0.01 0,0.01 -0.01,0.02 0,0 -0.01,0.01 -0.02,0.01 -0.01,0 -0.01,-0.01 -0.02,-0.01 0,0 -0.01,-0.01 -0.01,-0.01zm-0.07 -0.02c0,-0.01 0,-0.01 0,-0.02 0,0 0.01,-0.01 0.01,-0.01 0.01,0 0.01,0 0.02,0 0.01,0 0.02,0 0.02,0.01 0.01,0 0.01,0.01 0.01,0.02 0,0.01 0,0.02 -0.01,0.03 0,0 -0.01,0.01 -0.02,0.01 -0.01,0 -0.01,-0.01 -0.02,-0.01 0,0 -0.01,-0.01 -0.01,-0.01 0,-0.01 0,-0.01 0,-0.02zm0.01 0c0,0.01 0.01,0.01 0.01,0.02 0,0 0,0 0.01,0 0,0 0.01,0 0.01,0 0,-0.01 0.01,-0.01 0.01,-0.02 0,-0.01 -0.01,-0.01 -0.01,-0.01 0,-0.01 -0.01,-0.01 -0.01,-0.01 -0.01,0 -0.01,0 -0.01,0.01 0,0 -0.01,0 -0.01,0.01zm-0.02 -0.03l0 0.01 -0.01 0 0 0.03c0,0 0,0.01 0,0.01 0,0 0,0 0,0 0,0 0,0 0,0 0,0 0,0 0.01,0l0 0.01c0,0 -0.01,0.01 -0.01,0.01 -0.01,0 -0.01,-0.01 -0.01,-0.01 -0.01,0 -0.01,0 -0.01,0 0,0 0,0 0,-0.01 0,0 0,0 0,-0.01l0 -0.03 -0.01 0 0 -0.01 0.01 0 0 -0.01 0.02 -0.01 0 0.02 0.01 0zm-0.09 0.02l-0.02 0c0.01,-0.01 0.01,-0.02 0.01,-0.02 0.01,0 0.01,0 0.02,0 0.01,0 0.02,0 0.02,0 0,0 0.01,0 0.01,0.01 0,0 0,0 0,0.01l0 0.02c0,0.01 0,0.01 0,0.01 0,0.01 0,0.01 0,0.01l-0.01 0c0,0 0,0 0,0 0,0 0,0 0,0 -0.01,0 -0.01,0 -0.01,0 -0.01,0 -0.01,0.01 -0.02,0.01 0,0 -0.01,-0.01 -0.01,-0.01 0,0 -0.01,-0.01 -0.01,-0.01 0,-0.01 0,-0.01 0.01,-0.01 0,-0.01 0,-0.01 0,-0.01 0.01,0 0.01,0 0.02,0 0.01,-0.01 0.01,-0.01 0.01,-0.01l0 0c0,0 0,-0.01 0,-0.01 0,0 0,0 -0.01,0 0,0 0,0 -0.01,0 0,0 0,0.01 0,0.01zm0.02 0.01c0,0 0,0 -0.01,0 0,0.01 0,0.01 -0.01,0.01 0,0 0,0 0,0 0,0.01 0,0.01 0,0.01 0.01,0 0.01,0 0.01,0 0,0 0.01,0 0.01,0 0,0 0,0 0,-0.01 0,0 0,0 0,0l0 -0.01zm-0.11 -0.03l0.02 0 0 0.01c0,-0.01 0,-0.01 0,-0.01 0.01,0 0.01,0 0.02,0 0,0 0.01,0 0.02,0.01 0,0 0,0.01 0,0.02 0,0.01 0,0.02 0,0.03 -0.01,0 -0.02,0.01 -0.02,0.01 -0.01,0 -0.01,-0.01 -0.01,-0.01 -0.01,0 -0.01,0 -0.01,0l0 0.03 -0.02 0 0 -0.09zm0.02 0.03c0,0.01 0,0.01 0,0.02 0,0 0.01,0 0.01,0 0.01,0 0.01,0 0.01,0 0,-0.01 0.01,-0.01 0.01,-0.02 0,-0.01 -0.01,-0.01 -0.01,-0.01 0,-0.01 0,-0.01 -0.01,-0.01 0,0 -0.01,0 -0.01,0.01 0,0 0,0 0,0.01zm-0.08 -0.01l-0.01 0c0,-0.01 0,-0.02 0.01,-0.02 0,0 0.01,0 0.02,0 0,0 0.01,0 0.01,0 0.01,0 0.01,0 0.01,0.01 0,0 0,0 0,0.01l0 0.02c0,0.01 0,0.01 0,0.01 0,0.01 0.01,0.01 0.01,0.01l-0.02 0c0,0 0,0 0,0 0,0 0,0 0,0 0,0 -0.01,0 -0.01,0 0,0 -0.01,0.01 -0.01,0.01 -0.01,0 -0.01,-0.01 -0.02,-0.01 0,0 0,-0.01 0,-0.01 0,-0.01 0,-0.01 0,-0.01 0,-0.01 0,-0.01 0.01,-0.01 0,0 0,0 0.01,0 0.01,-0.01 0.01,-0.01 0.02,-0.01l0 0c0,0 0,-0.01 -0.01,-0.01 0,0 0,0 -0.01,0 0,0 0,0 0,0 0,0 -0.01,0.01 -0.01,0.01zm0.03 0.01c-0.01,0 -0.01,0 -0.01,0 -0.01,0.01 -0.01,0.01 -0.01,0.01 -0.01,0 -0.01,0 -0.01,0 0,0.01 0,0.01 0.01,0.01 0,0 0,0 0,0 0.01,0 0.01,0 0.01,0 0,0 0.01,0 0.01,-0.01 0,0 0,0 0,0l0 -0.01zm-0.12 0.03l0 -0.01 0.04 -0.06 -0.04 0 0 -0.02 0.07 0 0 0.02 -0.05 0.06 0.05 0 0 0.01 -0.07 0zm-0.11 -0.01l0.02 -0.01c0,0.01 0,0.01 0,0.01 0.01,0 0.01,0 0.01,0 0.01,0 0.01,0 0.01,0 0.01,0 0.01,0 0.01,0 0,-0.01 0,-0.01 -0.01,-0.01 0,0 0,0 0,0 -0.01,0 -0.02,-0.01 -0.03,-0.01 0,0 -0.01,-0.01 -0.01,-0.01 0,-0.01 0.01,-0.01 0.01,-0.02 0.01,0 0.01,0 0.02,0 0.01,0 0.02,0 0.02,0 0.01,0 0.01,0.01 0.01,0.01l-0.01 0.01c-0.01,-0.01 -0.01,-0.01 -0.01,-0.01 0,0 0,0 -0.01,0 0,0 -0.01,0 -0.01,0 0,0 0,0 0,0 0,0.01 0,0.01 0,0.01 0,0 0.01,0 0.02,0 0.01,0 0.01,0.01 0.02,0.01 0,0 0,0.01 0,0.01 0,0.01 0,0.01 0,0.02 -0.01,0 -0.02,0.01 -0.03,0.01 -0.01,0 -0.01,-0.01 -0.02,-0.01 0,0 -0.01,-0.01 -0.01,-0.01zm-0.07 -0.02c0,-0.01 0,-0.01 0,-0.02 0,0 0.01,-0.01 0.01,-0.01 0.01,0 0.01,0 0.02,0 0.01,0 0.02,0 0.03,0.01 0,0 0.01,0.01 0.01,0.02 0,0.01 -0.01,0.02 -0.01,0.03 -0.01,0 -0.02,0.01 -0.03,0.01 0,0 -0.01,-0.01 -0.02,-0.01 0,0 -0.01,-0.01 -0.01,-0.01 0,-0.01 0,-0.01 0,-0.02zm0.02 0c0,0.01 0,0.01 0,0.02 0,0 0.01,0 0.01,0 0.01,0 0.01,0 0.01,0 0.01,-0.01 0.01,-0.01 0.01,-0.02 0,-0.01 0,-0.01 -0.01,-0.01 0,-0.01 0,-0.01 -0.01,-0.01 0,0 -0.01,0 -0.01,0.01 0,0 0,0 0,0.01zm-0.05 0.03l0 -0.09 0.01 0 0 0.09 -0.01 0zm-0.07 -0.02l0.02 0.01c-0.01,0 -0.01,0.01 -0.01,0.01 -0.01,0 -0.01,0.01 -0.02,0.01 -0.01,0 -0.02,-0.01 -0.03,-0.02 0,0 0,-0.01 0,-0.02 0,-0.01 0,-0.02 0.01,-0.02 0,-0.01 0.01,-0.01 0.02,-0.01 0.01,0 0.01,0 0.02,0.01 0.01,0 0.01,0.01 0.01,0.03l-0.05 0c0,0 0.01,0.01 0.01,0.01 0,0 0,0 0.01,0 0,0 0,0 0.01,0 0,0 0,0 0,-0.01zm0 -0.01c0,-0.01 0,-0.01 0,-0.02 -0.01,0 -0.01,0 -0.01,0 -0.01,0 -0.01,0 -0.01,0 0,0.01 -0.01,0.01 -0.01,0.02l0.03 0zm-0.06 0.03l-0.01 0 0 -0.01c0,0.01 -0.01,0.01 -0.01,0.01 0,0 -0.01,0.01 -0.01,0.01 -0.01,0 -0.02,-0.01 -0.02,-0.01 -0.01,-0.01 -0.01,-0.02 -0.01,-0.03 0,-0.01 0,-0.02 0.01,-0.02 0,-0.01 0.01,-0.01 0.02,-0.01 0.01,0 0.01,0 0.02,0.01l0 -0.04 0.01 0 0 0.09zm-0.04 -0.03c0,0.01 0,0.01 0,0.01 0,0.01 0.01,0.01 0.01,0.01 0.01,0 0.01,0 0.01,0 0.01,-0.01 0.01,-0.01 0.01,-0.02 0,-0.01 0,-0.01 -0.01,-0.01 0,-0.01 0,-0.01 -0.01,-0.01 0,0 0,0 -0.01,0 0,0.01 0,0.01 0,0.02zm-0.08 0.01l0.01 0.01c0,0 0,0.01 -0.01,0.01 0,0 -0.01,0.01 -0.01,0.01 -0.02,0 -0.02,-0.01 -0.03,-0.02 0,0 -0.01,-0.01 -0.01,-0.02 0,-0.01 0.01,-0.02 0.01,-0.02 0.01,-0.01 0.02,-0.01 0.02,-0.01 0.01,0 0.02,0 0.03,0.01 0,0 0.01,0.01 0.01,0.03l-0.05 0c0,0 0,0.01 0.01,0.01 0,0 0,0 0.01,0 0,0 0,0 0,0 0.01,0 0.01,0 0.01,-0.01zm0 -0.01c0,-0.01 0,-0.01 -0.01,-0.02 0,0 0,0 0,0 -0.01,0 -0.01,0 -0.01,0 -0.01,0.01 -0.01,0.01 -0.01,0.02l0.03 0zm-0.07 0.03l0 -0.01c-0.01,0.01 -0.01,0.01 -0.01,0.01 -0.01,0 -0.01,0.01 -0.02,0.01 0,0 0,-0.01 -0.01,-0.01 0,0 0,0 -0.01,-0.01 0,0 0,0 0,-0.01l0 -0.04 0.02 0 0 0.03c0,0.01 0,0.01 0,0.02 0,0 0,0 0,0 0.01,0 0.01,0 0.01,0 0,0 0.01,0 0.01,0 0,0 0,0 0,-0.01 0,0 0,0 0,-0.01l0 -0.03 0.02 0 0 0.06 -0.01 0zm-0.08 0.03l0 -0.03c0,0 -0.01,0 -0.01,0 0,0 -0.01,0.01 -0.01,0.01 -0.01,0 -0.01,-0.01 -0.02,-0.01 -0.01,-0.01 -0.01,-0.02 -0.01,-0.03 0,-0.01 0,-0.02 0.01,-0.02 0.01,-0.01 0.01,-0.01 0.02,-0.01 0,0 0.01,0 0.01,0 0,0 0.01,0 0.01,0.01l0 -0.01 0.02 0 0 0.09 -0.02 0zm0 -0.06c0,-0.01 0,-0.01 -0.01,-0.01 0,-0.01 0,-0.01 -0.01,-0.01 0,0 0,0 -0.01,0.01 0,0 0,0 0,0.01 0,0.01 0,0.01 0,0.02 0.01,0 0.01,0 0.01,0 0.01,0 0.01,0 0.01,0 0.01,-0.01 0.01,-0.01 0.01,-0.02zm-0.08 -0.04l0 -0.02 0.02 0 0 0.02 -0.02 0zm0 0.07l0 -0.06 0.02 0 0 0.06 -0.02 0zm-0.01 -0.04l-0.02 0c0,0 0,-0.01 0,-0.01 -0.01,0 -0.01,0 -0.01,0 -0.01,0 -0.01,0 -0.01,0 0,0.01 -0.01,0.01 -0.01,0.02 0,0.01 0.01,0.01 0.01,0.02 0,0 0,0 0.01,0 0,0 0,0 0.01,0 0,0 0,-0.01 0,-0.01l0.02 0c0,0.01 -0.01,0.02 -0.01,0.02 -0.01,0 -0.01,0.01 -0.02,0.01 -0.01,0 -0.02,-0.01 -0.02,-0.01 -0.01,-0.01 -0.01,-0.02 -0.01,-0.03 0,-0.01 0,-0.02 0.01,-0.02 0,-0.01 0.01,-0.01 0.02,-0.01 0.01,0 0.01,0 0.02,0 0,0.01 0.01,0.01 0.01,0.02zm-0.12 0l-0.01 0c0,-0.01 0,-0.02 0.01,-0.02 0,0 0.01,0 0.02,0 0,0 0.01,0 0.01,0 0.01,0 0.01,0 0.01,0.01 0,0 0,0 0,0.01l0 0.02c0,0.01 0,0.01 0,0.01 0,0.01 0.01,0.01 0.01,0.01l-0.02 0c0,0 0,0 0,0 0,0 0,0 0,0 -0.01,0 -0.01,0 -0.01,0 -0.01,0 -0.01,0.01 -0.01,0.01 -0.01,0 -0.01,-0.01 -0.02,-0.01 0,0 0,-0.01 0,-0.01 0,-0.01 0,-0.01 0,-0.01 0,-0.01 0,-0.01 0.01,-0.01 0,0 0,0 0.01,0 0.01,-0.01 0.01,-0.01 0.02,-0.01l0 0c0,0 0,-0.01 -0.01,-0.01 0,0 0,0 -0.01,0 0,0 0,0 0,0 0,0 -0.01,0.01 -0.01,0.01zm0.03 0.01c-0.01,0 -0.01,0 -0.01,0 -0.01,0.01 -0.01,0.01 -0.01,0.01 -0.01,0 -0.01,0 -0.01,0 0,0.01 0,0.01 0.01,0.01 0,0 0,0 0,0 0.01,0 0.01,0 0.01,0 0,0 0.01,0 0.01,-0.01 0,0 0,0 0,0l0 -0.01zm-0.07 0l0.01 0.01c0,0.01 0,0.01 -0.01,0.02 0,0 -0.01,0.01 -0.02,0.01 -0.01,0 -0.02,-0.01 -0.03,-0.02 -0.01,-0.01 -0.01,-0.02 -0.01,-0.03 0,-0.02 0,-0.03 0.01,-0.04 0.01,0 0.02,-0.01 0.03,-0.01 0.01,0 0.02,0.01 0.03,0.01 0,0.01 0,0.01 0,0.02l-0.01 0c0,0 -0.01,-0.01 -0.01,-0.01 0,0 -0.01,0 -0.01,0 -0.01,0 -0.01,0 -0.02,0 0,0.01 0,0.02 0,0.03 0,0.01 0,0.02 0,0.02 0.01,0.01 0.01,0.01 0.02,0.01 0,0 0.01,0 0.01,-0.01 0,0 0.01,0 0.01,-0.01zm-0.13 0.03l0 -0.09 0.02 0 0 0.09 -0.02 0zm-0.08 0l0 -0.09 0.06 0 0 0.02 -0.05 0 0 0.02 0.05 0 0 0.01 -0.05 0 0 0.03 0.05 0 0 0.01 -0.06 0zm1.05 -1.23c-0.02,0 -0.04,0 -0.06,0 -0.01,0 -0.01,0.01 -0.01,0.01 0,0 0,0.01 -0.01,0.01 0,0 0,0 0,0.01 0,0 -0.01,0 -0.01,-0.01 0,0.01 0,0.01 -0.01,0.01 0,0 0,0 0,0 -0.01,0.01 -0.01,0.01 -0.01,0.02 0,0 0,0 0,0.01 0,-0.01 0.01,-0.01 0.01,-0.01 0.01,0 0.02,-0.01 0.03,-0.01 0,0 0.01,0 0.02,0 0,0 0,0 0.01,0 0.01,0 0.02,0 0.03,0 0.01,0 0.01,0 0.02,0 0.01,0.01 0.01,0.01 0.02,0.01 0,0.01 0.01,0.02 0.02,0.01 0,0.01 0.01,0.01 0.02,0.02 0.01,0 0.01,0.01 0.01,0.02 -0.01,0 -0.01,0.01 -0.01,0.02 0,0 -0.01,0 -0.01,-0.01 0,0.01 0,0.01 -0.01,0.01 0,0.01 0,0.01 0,0.02 0,0 0.01,0.01 0.01,0.01 0,0.01 0,0.02 0,0.02 -0.01,0.01 -0.01,0.02 -0.01,0.02 0,0 0.01,0.01 0.02,0.01 0,0 0.01,-0.01 0.02,0 0,0 0,0.01 0,0.01 0,0 0,0 0,0 0,0 0,0 0,0 0,-0.01 0.01,-0.01 0.01,-0.02 0.01,0.01 0.01,0.02 0.02,0.02 0,0 0,0.01 0,0.02 0,-0.01 0,-0.01 0,-0.02 0.01,-0.01 0.02,-0.02 0.02,-0.03 0,-0.01 0,-0.02 -0.01,-0.03 0,-0.02 0,-0.03 -0.01,-0.05 -0.01,-0.01 -0.01,-0.02 -0.02,-0.04 -0.01,-0.02 -0.02,-0.03 -0.04,-0.04 -0.01,0 -0.02,0 -0.02,0 -0.01,0 -0.01,-0.01 -0.02,-0.01 -0.01,-0.01 -0.02,-0.01 -0.02,-0.01zm-0.45 0.48c-0.01,0 -0.01,0 -0.01,0.01 0.01,0 0.01,0 0.01,-0.01zm0.01 -0.01c0,0 0,0 0,0 0,0 0.01,0 0,0zm0.04 -0.01c-0.01,0 -0.02,0 -0.03,0 0,0 0.01,0.01 0.02,0.01 0,0 0,0 0.01,-0.01zm0.22 -0.08c-0.02,0 -0.03,0.01 -0.04,0.01 0.01,0 0.01,0 0.01,0.01 0,0 0,0.01 0,0.01 0.01,-0.01 0.02,-0.01 0.03,-0.01 0,-0.01 0,-0.01 0,-0.02zm0.09 -0.01c-0.01,0 -0.02,0 -0.02,-0.01 0,0.01 0,0.01 -0.01,0.01 0.01,0 0.02,0 0.03,0zm-0.48 -0.04c0,0 -0.01,0 -0.01,0 0,0.01 0,0.01 0,0.01 0.01,0 0.01,0 0.01,-0.01zm0.47 -0.01c0,0 0.01,-0.01 0,-0.02 0,0.01 0,0.02 -0.01,0.02 0,0 0,0 0,0.01 0.01,0.01 0.02,0.01 0.03,0.02 0.01,0.01 0.02,0.02 0.03,0.02 0,0 0,-0.01 0.01,-0.01 0.01,-0.01 0.02,0 0.03,0 0,0 0,-0.01 0,-0.01 -0.01,0 -0.01,0 -0.02,0 0,-0.01 0,-0.01 0,-0.02 0,0 -0.01,0 -0.01,0 -0.02,-0.01 -0.02,0.01 -0.04,0.01 0.01,-0.01 0.02,-0.01 0.02,-0.02 -0.01,0.01 -0.02,0.01 -0.03,0.01 0,0 -0.01,-0.01 -0.01,-0.01zm-0.05 -0.03c-0.01,0 -0.01,0 -0.01,0 0,0 0,0.01 0,0.02 0,0 0,0.01 0,0.01 0,0 0,0 0,0 0,-0.01 0,-0.02 0,-0.03 0,0 0.01,0 0.01,0zm-0.02 -0.01c0,0 -0.01,0.01 -0.01,0.01 0,0 0.01,0.01 0.01,0.01 0,0 0,0 0,-0.01 0,0 0,-0.01 0,-0.01zm0.06 0.01c0,-0.01 0,-0.01 -0.01,-0.01 0,0.01 0,0.02 -0.01,0.02 0,0 0,0 0,-0.01 0,0 -0.01,0 -0.01,0 -0.01,0.01 0,0.02 -0.01,0.03 0.01,0 0.01,0 0.01,0.01 0.01,0 0.01,0 0.02,-0.01 -0.01,0 -0.01,0 -0.02,0 0.01,0 0.01,0 0.01,0 0.01,-0.01 0.01,-0.02 0.02,-0.03zm0.03 -0.02c-0.01,0 -0.03,0.01 -0.03,0.02 0,0 0,0 0,0 0,0 0.01,0 0.01,0 0.01,0 0.01,-0.01 0.02,-0.02zm-0.44 -0.03c0,0 -0.01,0 -0.01,0 0,0 0,0.01 0,0.01 0.01,0 0.01,0 0.01,-0.01zm0.37 0c-0.01,0 -0.02,0 -0.03,0 0,0.01 0,0.01 0,0.01 0.01,0 0.02,-0.01 0.03,-0.01zm0.29 0c-0.01,0 -0.02,0 -0.02,-0.01 -0.01,0.01 -0.01,0.02 -0.02,0.02 0,0 -0.01,0.01 -0.02,0.01 0,0 -0.01,-0.01 -0.01,-0.01 -0.01,0.01 -0.01,0.01 -0.01,0.01 0.01,0.01 0.01,0 0.02,0.01 0,0.01 -0.01,0.02 -0.01,0.03 0,0 0,0.01 0,0.01 0,0 0.01,0 0.01,-0.01 0.01,0.01 0.01,0.02 0.01,0.03 -0.03,0.02 -0.05,0.05 -0.07,0.08 -0.01,0 -0.01,0 -0.01,0.01 -0.02,0.01 -0.03,0.02 -0.04,0.03 0.01,0.01 0.01,0.01 0.02,0.02 0.01,0.01 0.02,0.03 0.03,0.04 0,0 0,0 0,0 -0.01,0.02 -0.01,0.03 -0.02,0.04 -0.02,0.02 -0.03,0.03 -0.04,0.05 0,-0.01 0,-0.01 -0.01,-0.01 0,0 -0.01,0 -0.02,-0.01 0,0 0,0 0,0 -0.01,-0.01 -0.02,-0.01 -0.02,-0.02 -0.01,0 -0.01,-0.01 -0.01,-0.01 -0.01,0.01 -0.01,0.02 -0.02,0.02 0.03,0.02 0.05,0.03 0.08,0.03 0.19,0.06 0.27,-0.05 0.36,-0.07 0,0 0,-0.01 0,-0.02 0,-0.01 0,-0.02 0,-0.02 0,-0.01 0,-0.02 0,-0.03 -0.01,-0.02 -0.02,-0.04 -0.04,-0.05 -0.01,0 -0.02,-0.01 -0.04,-0.01 -0.01,-0.01 -0.02,-0.01 -0.03,-0.01 0,0 -0.01,0 -0.01,0 0,-0.01 -0.01,-0.01 -0.01,-0.01 -0.01,0 -0.01,0 -0.01,0 0,0 -0.01,0 -0.01,0 -0.01,-0.01 -0.01,-0.01 -0.02,-0.02 -0.01,0 -0.01,0 -0.02,0 -0.01,0 -0.01,0 -0.02,-0.01 -0.01,0 -0.01,-0.02 -0.01,-0.03 0.01,-0.01 0.02,-0.01 0.03,-0.01 0,-0.01 0,-0.01 -0.01,-0.01 0.01,-0.01 0.01,-0.01 0.02,-0.01 -0.01,-0.01 -0.02,0 -0.02,0 -0.01,-0.01 0,-0.01 0,-0.02 0.01,0 0.01,0 0.02,-0.01 0,0 0,0 0,-0.01 -0.01,0.01 -0.01,0.01 -0.02,0 0.01,0 0.01,0 0.02,-0.01zm-0.27 0.33c0,-0.02 0,-0.03 0,-0.05 0,-0.01 0,-0.02 0,-0.04 0,0 0,0 0.01,0 -0.01,0 -0.02,-0.01 -0.02,-0.02 -0.01,-0.01 -0.02,-0.02 -0.02,-0.02 -0.01,-0.01 -0.03,-0.01 -0.04,-0.01 0.01,0 0.02,0 0.02,0 0.02,0 0.03,0.01 0.03,0.02 0.01,0.01 0.02,0.02 0.03,0.02 0,0.01 0,0.01 0.01,0.02 0.01,0 0.01,0.01 0.02,0.02 0,0 0.01,-0.01 0.01,-0.01 0,-0.01 0,-0.01 0,-0.02 0,0 0,0 0.01,0 0,0 0,-0.01 0,-0.01 -0.01,-0.01 -0.02,-0.01 -0.02,-0.02 0.01,0 0.01,0 0.01,0 0.01,-0.01 -0.01,-0.01 -0.01,-0.02 0,0 -0.01,0 -0.01,0 0.01,-0.01 0.01,-0.02 0,-0.02 0,0 0,-0.01 0,-0.01 0,0 0,-0.01 0,-0.01 0,0 -0.01,0 -0.01,0 0,-0.01 0,-0.01 0,-0.01 -0.01,-0.01 -0.02,-0.01 -0.02,-0.02 -0.01,0 -0.02,-0.01 -0.02,0 0.01,0.01 0.02,0.01 0.02,0.02 0,0.01 -0.01,0.01 -0.01,0 0,0.01 0,0.01 0,0.01 0,0.01 0.01,0.01 0.01,0.01 0.01,0 0.02,0 0.02,0 0,0.01 0,0.01 0,0.01 0,0 -0.01,-0.01 -0.01,-0.01l0 0.01c0.01,0 0.01,0.01 0.02,0.02 0,0 -0.01,0 -0.01,0 -0.01,-0.01 -0.02,-0.01 -0.03,-0.01 0,-0.01 0,-0.01 0,-0.01 -0.01,0 -0.02,0 -0.02,-0.01 -0.01,0.01 -0.01,0.01 -0.02,0.01 -0.01,0 -0.02,0 -0.03,0.01l0 0c0,0 0,0 0,0 0,0 0,-0.01 0,-0.01 0,0 0,0 -0.01,0 0.01,-0.01 0,-0.01 0,-0.02 0,0 0,0 0,-0.01 0,0 0.01,0 0.01,-0.01 0,0 0.01,-0.01 0.02,-0.02 0,0 0,0 0,-0.01 0,0.01 0,0.01 0,0.01 0.02,-0.01 0.03,0 0.04,-0.01 -0.01,0 -0.02,0 -0.03,0 0,0 -0.01,0 -0.01,0 0,-0.01 0.01,-0.01 0.02,-0.02 0,0 0,0 0,-0.01 -0.01,0.01 -0.01,0.01 -0.01,0.01 -0.01,0 -0.02,0 -0.02,0.01 -0.01,0 -0.02,0 -0.03,0.01 -0.01,0.01 -0.02,0.01 -0.02,0.01 0,0.01 -0.01,0.01 -0.01,0.02 0,-0.01 0,-0.01 -0.01,-0.01 0,0.01 0,0.02 -0.01,0.03 0,0 0,0.01 0,0.01 0,0 -0.01,0.01 -0.01,0.01 0,0 0,0 0,0.01 0,0 -0.01,0 -0.01,0 0,-0.02 0,-0.03 0,-0.04 -0.01,0 -0.02,-0.01 -0.02,0 -0.01,0.01 -0.01,0.01 -0.01,0.01 0,0 -0.01,0 -0.01,0.01 0,0 0,0 -0.01,0.01 0.01,0 0.01,0 0.01,0 0,0 -0.01,0 -0.01,0.01 0,0 0,0.01 -0.01,0.02 0,0 0,0 0,0 0,-0.02 0.01,-0.04 0.02,-0.06 0,-0.01 0,-0.01 0,-0.02 -0.01,0.01 -0.02,0.02 -0.02,0.03 -0.01,0.01 -0.01,0.02 -0.01,0.03 0,0 0,0 0,0 -0.01,0 -0.01,0 -0.01,0 0,0 0,-0.01 0,-0.01 0,0 0,0 0,0 -0.01,0 -0.01,0 -0.01,0.01 0.01,0 0.01,0.01 0.01,0.02 0,0 -0.01,0.01 -0.01,0.01 0,0 -0.01,0 -0.01,0.01 0,0 0,0.01 0,0.01 0,0 0,0 -0.01,0 0,0 -0.01,0 -0.02,0 0,0 0,0 0,0.01 0,0 -0.01,-0.01 -0.01,0 0.01,0 0.02,0 0.02,0.01 -0.01,0 -0.02,-0.01 -0.03,0 0.01,0 0.01,0.01 0.01,0.01 -0.01,0 -0.02,0 -0.02,0 -0.01,0 -0.02,0.01 -0.02,0.02 0,-0.01 0,-0.02 0,-0.02 -0.01,0 -0.01,0 -0.01,0 -0.01,-0.01 -0.01,-0.03 -0.01,-0.04 0,0 0,0 0,0 0,-0.01 0,-0.02 0,-0.02 0,0 0,0 0,-0.01 0,0 0,-0.01 0,-0.02 0,-0.01 0,-0.02 0,-0.03 0.01,-0.01 0.01,-0.02 0,-0.02 0,0 0,-0.01 0.01,-0.01 -0.01,0 -0.01,-0.01 -0.01,-0.01 0,-0.01 0.01,-0.02 0.01,-0.03 0,-0.01 0.01,-0.02 0,-0.04 -0.01,0.02 0,0.05 -0.02,0.06 0,0 0,0 -0.01,-0.01 0,0.01 -0.02,0.02 -0.01,0.03 0.01,0.01 0.02,0 0.03,0 0,0 -0.01,0 -0.01,0 -0.01,0.01 -0.01,0.01 -0.02,0.01 0,0 0,0 0,0.01 -0.01,0 -0.01,-0.01 -0.01,-0.01 0,0 -0.01,0 -0.01,0 0,0 -0.01,0 -0.01,0 0,0.01 -0.01,0 -0.02,0.01 0,0 0.01,0 0.01,0 0,0 0,0 0,0 0.01,0 0.03,0 0.04,0 0,0.01 -0.01,0.02 -0.01,0.02 -0.02,0.01 -0.04,0.02 -0.05,0.03 -0.01,0 -0.02,0 -0.02,0 -0.01,-0.02 0,-0.05 0,-0.07 0,0 0.01,-0.01 0.01,-0.01 0,0 0,-0.01 -0.01,0 -0.01,0.01 -0.01,0.03 -0.02,0.04 0,0.01 -0.01,0.03 -0.02,0.04 0,0.01 0,0.02 0,0.03 0,0.01 -0.01,0.02 -0.01,0.03 0,0.01 0,0.02 0,0.03 0,0.02 0.01,0.03 0,0.04 0,0.01 0.01,0.03 0.01,0.04 0,0.02 0.01,0.04 0.01,0.05 -0.01,0.02 -0.01,0.04 0,0.05 0,0.01 0,0.02 -0.01,0.02 0.03,0 0.07,0 0.1,0 0.03,0 0.07,-0.02 0.12,-0.05l0.2 -0.1c0.02,-0.01 0.03,-0.01 0.05,-0.01 0,-0.01 0,-0.02 0,-0.02 0,-0.01 0,-0.01 0,-0.02 0,-0.01 0.01,-0.02 0,-0.03 0.01,0 0.01,-0.01 0.01,-0.01 0,0 0.01,0 0.01,0.01l0 0c0,0 -0.01,0 -0.01,0 0,0 0,0 0.01,0.01 0,0 0,0 0,0.01 -0.01,0.01 0,0.02 -0.01,0.03 0,0.01 0,0.01 0,0.02 0.01,0.01 0.02,0.01 0.04,0.02zm-0.06 -0.23l0 0c-0.01,0.01 -0.01,0.01 -0.02,0.02 0,0 0,0.01 0,0.01 -0.01,0 -0.02,-0.01 -0.02,-0.01 0.01,-0.01 0.02,-0.01 0.04,-0.02zm-0.01 0.09l0 0c0,0 0,0 0,0 0.01,0.01 0.01,0.01 0.01,0.01 0,0 0,0 -0.01,0 0,-0.01 -0.01,-0.01 -0.01,-0.02 0,0 0.01,0.01 0.01,0.01zm0.03 0.02l0 0c0,0 0.01,0 0.01,0 0,0 0,0 0,0 -0.01,0 -0.01,0 -0.01,0 0,0.01 0,0.01 0,0.01 -0.01,0 -0.01,0 -0.01,0 0,0 0,-0.01 -0.01,-0.01 0.01,0 0.01,-0.01 0.01,-0.01 0,0 0.01,0.01 0.01,0.01zm0.1 -0.21c0,-0.01 0,-0.01 -0.01,-0.02 0,0.01 0,0.01 0,0.01 -0.01,0.01 -0.03,0 -0.04,0.01 0,0.01 0.01,0.01 0.01,0.02 0.01,0 0.01,0 0.02,-0.01 0,0 0.01,0 0.02,0 0,0 0,-0.01 0,-0.01zm-0.04 -0.03c-0.01,0.01 -0.02,0 -0.03,0.01 0.01,0.01 0.01,0.01 0.01,0.02 0.01,-0.01 0.01,-0.01 0.02,-0.02 0,0 0.01,0 0.01,0 0.01,0 0.02,0.01 0.02,0 -0.01,0 -0.02,0 -0.03,-0.01zm-0.44 -0.01c0,0 0,-0.01 0,-0.01 0,0.01 -0.01,0.02 -0.01,0.03 0,0.01 0,0.02 0,0.03 0,0.02 -0.01,0.03 -0.01,0.05 -0.01,0.01 -0.01,0.01 -0.02,0.01 0,0 0.01,0 0.01,0.01 0,-0.01 0,-0.01 0.01,-0.01 0.01,-0.02 0.01,-0.05 0.02,-0.07 0,-0.01 0,-0.01 0,-0.02 0,0 0,0 0,0 0,-0.01 0,-0.01 0,-0.02zm0.47 -0.01c-0.01,-0.01 -0.02,-0.01 -0.03,-0.01 0,0 -0.01,0 -0.01,0 0,0 0,0.01 0,0.01 0,0 0.01,0 0.02,0 0,0 0.01,0 0.02,0zm-0.35 -0.04c0,0 -0.01,-0.01 -0.01,0 0.01,0.01 -0.01,0.02 -0.02,0.02 -0.02,0 -0.04,0.01 -0.06,0.01 -0.01,0.01 -0.01,0.01 -0.01,0.01 0.01,0.01 0.02,-0.01 0.04,-0.01 0,0.01 0.01,0 0.02,0 0.01,-0.01 0.03,-0.01 0.04,-0.02 0,0 0,0 0,-0.01zm0.31 -0.01c-0.01,-0.01 -0.02,0 -0.02,0 0,0.01 0,0.01 0,0.01 0,0 0.01,0 0.01,0 0.01,0 0.01,-0.01 0.01,-0.01zm0.09 0c-0.01,0 -0.02,-0.01 -0.03,-0.01 0,0.01 0,0.01 0,0.01 0.01,0.01 0.03,0 0.04,0.01 0,-0.01 0,-0.01 -0.01,-0.01zm-0.41 -0.02c0,-0.01 -0.01,-0.01 -0.01,0 -0.01,0.01 -0.02,0.01 -0.03,0.02 -0.02,0 -0.02,0.01 -0.04,0.02 -0.01,0 -0.01,0 -0.02,0.01 0,-0.01 0.01,-0.03 0.01,-0.04 0,0 -0.01,0.01 -0.01,0.01 0,0.01 -0.01,0.02 -0.01,0.03 0,0.01 0,0.01 0,0.02l0.01 -0.01c0,0.01 0,0.02 0,0.02 0.01,0 0,-0.02 0.01,-0.03 0.01,0 0.01,0 0.01,0 0.02,-0.01 0.03,-0.02 0.05,-0.03 0.01,-0.01 0.02,-0.01 0.03,-0.02zm0.33 -0.01c-0.01,0 -0.01,0 -0.01,0 0,0 0,0.01 0,0.01 -0.01,0 -0.01,0 -0.02,0 0.01,0.01 0.02,0 0.02,0 0.01,0 0.01,-0.01 0.01,-0.01zm0.08 0c-0.01,0 -0.02,0 -0.03,0 0,0 -0.01,0.01 -0.01,0.01 0.01,0 0.01,0 0.02,0 0,0 0,0 0.01,-0.01 0,0 0.01,0.01 0.02,0.01 0,0 -0.01,-0.01 -0.01,-0.01zm-0.46 -0.01c0,0 -0.01,0.01 -0.01,0.01 -0.01,0 -0.01,0.01 -0.02,0.01 0.01,0 0.02,-0.01 0.03,-0.02zm0.03 0.01c0,-0.01 0.01,-0.02 0,-0.02 0,0 0,0.01 -0.01,0.01 0,0.01 -0.01,0.01 -0.02,0.01 -0.01,0.01 -0.02,0.01 -0.03,0.02 0.01,0 0.01,0 0.02,0 0.01,-0.01 0.02,-0.02 0.04,-0.02 0,0 0.01,0 0.01,0 0,0 -0.01,0 -0.01,0zm0.49 -0.09l0 0c0,0 -0.01,0 -0.01,0 0,0 0,0.01 0.01,0.01 0,0 -0.01,0 -0.01,0 0,0 0,0 0,0 -0.01,0 -0.01,0 -0.01,-0.01 0,0 0,-0.01 0,-0.01 0,0 0,0 0,0 0,0 0.01,0 0.01,0 0,0 0.01,0 0.01,0.01zm0.04 0.12l0 0c0,-0.01 -0.01,-0.01 0,-0.02 0,0.01 0.01,0.02 0,0.02zm0.13 0.55c0,0 0,0 0,0.01l-0.03 0.08c0,0.01 0,0.01 0,0.02 0,0 0,0 0,0 0,0 0.01,0.01 0.01,0.01 0,0 0.01,0 0.01,0 0,-0.01 0,-0.01 0,-0.01 0.01,0 0.01,0 0.01,0l0.03 -0.06c0.01,-0.01 0.01,-0.01 0.01,-0.02 0,0 0.01,-0.01 0.01,-0.01 0,0 0,0 0,0 -0.01,0 -0.02,0 -0.03,-0.01 0,0 -0.01,0 -0.01,0 0,-0.01 0,-0.01 -0.01,-0.01zm0 -0.03c0,0 0.02,0.01 0.02,0.01 0,0 0,0 0.01,0 0,0.01 0.01,0.01 0.02,0.02 0.01,0 0.01,0 0.01,0 0.01,0 0.01,0 0.01,0 0.01,0 0.01,-0.01 0.01,-0.01 0,-0.01 0,-0.02 0,-0.02 0,-0.02 -0.02,-0.03 -0.04,-0.03 -0.01,0 -0.02,0 -0.03,0.01 0,0 -0.01,0.01 -0.01,0.02zm0.07 0.03c0,0 -0.01,0 -0.02,0 0,0 -0.01,-0.01 -0.02,-0.01 -0.01,0 -0.02,-0.01 -0.02,-0.02 -0.01,0 -0.01,0 -0.01,0 0,0.02 0.01,0.04 0.02,0.04 0.01,0.01 0.02,0.01 0.03,0.01 0.01,0 0.01,-0.01 0.02,-0.01 0,0 0,0 0,0l0 0c0,-0.01 0,0 0,-0.01zm-0.1 0.14c0,0 0,-0.01 0,-0.01 0,0 0.01,-0.01 0.01,-0.01l-0.01 -0.01 -0.01 0.03c0,0 0.01,0 0.01,0zm-0.51 0.13l0.7 0 0 0.03 -0.7 0 0 -0.03zm-0.4 -0.1c0,0.02 0,0.04 -0.01,0.06 -0.02,0.02 -0.04,0.03 -0.06,0.03 0,0 -0.01,0 -0.02,0 -0.01,0 -0.01,0 -0.02,0 0,0 -0.01,0 -0.02,0 0,0 -0.01,0 -0.01,0 0,0 -0.01,0 -0.01,-0.01 0,-0.01 0,-0.02 0.01,-0.04 0,-0.01 0,-0.03 0,-0.04 0,-0.01 0,-0.02 0,-0.04 -0.01,-0.02 -0.01,-0.03 -0.01,-0.04 0,0 0.01,-0.01 0.01,-0.01 0,0 0,0 0.01,0 0.01,0 0.01,0 0.01,0 0.01,0 0.01,0 0.02,0 0,0 0.01,0 0.01,0 0.03,0 0.05,0.01 0.06,0.02 0.01,0.01 0.02,0.02 0.03,0.03 0,0.01 0,0.03 0,0.04zm-0.03 0c0,-0.02 0,-0.03 -0.01,-0.04 -0.01,-0.02 -0.02,-0.02 -0.04,-0.02 -0.02,0 -0.02,0 -0.02,0 -0.01,0 -0.01,0 -0.01,0 0,0.01 0,0.02 0,0.03 0,0.02 -0.01,0.02 -0.01,0.03 0,0.01 0.01,0.02 0.01,0.03 0,0.01 0,0.02 0,0.03 0,0 0,0 0.01,0 0,0 0.01,0 0.02,0 0.01,0 0.02,0 0.02,0 0.01,0 0.01,-0.01 0.02,-0.01 0.01,-0.02 0.01,-0.03 0.01,-0.05zm0.09 -0.06c0,0.01 -0.01,0.02 -0.02,0.02 -0.01,0 -0.02,-0.01 -0.02,-0.02 0,0 0,-0.01 0.01,-0.01 0,0 0,-0.01 0.01,-0.01 0,0 0.01,0.01 0.01,0.01 0,0 0.01,0.01 0.01,0.01zm0 0.03c0,0.01 0,0.02 -0.01,0.03 0,0.01 0,0.02 0,0.03 0,0.01 0,0.02 0,0.03 0,0.01 0,0.02 0,0.02 0,0.01 0,0.01 0,0.01l-0.02 0c0,0 0,-0.01 0,-0.01 0,0 0,-0.01 0,-0.02 0,-0.02 0,-0.02 0,-0.03 0,-0.01 0,-0.02 -0.01,-0.03 0,-0.01 0,-0.02 0,-0.03 0,0 0,0 0.01,0 0,0 0,0 0,0 0.01,0 0.01,0 0.01,0 0,0 0,0 0.01,0 0,0 0,0 0,0 0,0 0.01,0 0.01,0zm0.13 0.06c0,0.01 0,0.03 -0.02,0.04 -0.01,0.01 -0.02,0.02 -0.04,0.02 -0.02,0 -0.03,-0.01 -0.04,-0.02 -0.01,-0.01 -0.02,-0.03 -0.02,-0.04 0,-0.02 0.01,-0.03 0.02,-0.05 0.01,-0.01 0.02,-0.01 0.04,-0.01 0.02,0 0.03,0 0.04,0.01 0.02,0.02 0.02,0.03 0.02,0.05zm-0.02 0c0,-0.01 -0.01,-0.02 -0.01,-0.03 -0.01,-0.01 -0.02,-0.01 -0.03,-0.01 -0.01,0 -0.02,0 -0.02,0.01 -0.01,0.01 -0.01,0.02 -0.01,0.03 0,0.01 0,0.02 0.01,0.02 0,0.01 0.01,0.01 0.02,0.01 0.01,0 0.02,0 0.03,-0.01 0,0 0.01,-0.01 0.01,-0.02zm0.23 0.05c0,0.01 -0.01,0.01 -0.01,0.01 0,0 0,0 0,0 -0.01,0 -0.01,0 -0.01,0 0,0 0,0 -0.01,0 0,0 0,0 0,0 0,0 0,-0.01 0,-0.01 0,0 0,-0.01 0,-0.02 0,0 0,-0.01 0,-0.01 0,-0.02 0,-0.04 0,-0.04 0,-0.01 -0.01,-0.01 -0.01,-0.01 0,-0.01 -0.01,-0.01 -0.02,-0.01 0,0 -0.01,0 -0.01,0.01 -0.01,0 -0.01,0.01 -0.01,0.01 0,0.01 0,0.02 0,0.04 0,0 0,0.01 0,0.02 0,0 0,0.01 0,0.01 0,0.01 0,0.01 -0.01,0.01 0,0 0,0 0,0 0,0 -0.01,0 -0.01,0 0,0 0,0 0,0 -0.01,0 -0.01,0 -0.01,0 0,0 0,0 0,-0.01 0,0 0,-0.01 0,-0.01 0,-0.01 0,-0.02 0,-0.02l0 -0.03c0,-0.01 0,-0.02 0,-0.02 -0.01,-0.01 -0.01,-0.01 -0.02,-0.01 -0.01,0 -0.01,0 -0.02,0.01 -0.01,0 -0.01,0.01 -0.01,0.01l0 0.04c0,0 0,0.01 0,0.02 0,0 0,0.01 0,0.01 0,0.01 0,0.01 -0.01,0.01l-0.02 0c0,0 0,0 0,-0.01 0,0 0,-0.01 0,-0.03 0,-0.01 0,-0.02 0,-0.03 0,-0.01 0,-0.03 -0.01,-0.04 0,0 0,0 0,0 0,0 0,-0.01 0.01,-0.01 0,0 0,0 0.01,0 0,0 0.01,0 0.01,0l0 0c0,0 0,0 0,0.01 0.01,0 0.01,0.01 0.01,0.01 0,0 0,0 0,-0.01 0.01,0 0.01,-0.01 0.02,-0.01 0,0 0.01,0 0.02,0 0.02,0 0.03,0 0.03,0.02 0.01,-0.01 0.02,-0.01 0.02,-0.02 0.01,0 0.02,0 0.03,0 0.01,0 0.02,0 0.03,0.01 0,0.01 0,0.02 0,0.03 0,0 0,0.01 0,0.01 0,0.01 0,0.01 0,0.02 0,0 0,0.01 0,0.02 0,0.01 0.01,0.02 0.01,0.02zm0.12 -0.06c0,0.01 0,0.01 0,0.01 -0.01,0 -0.03,0.01 -0.08,0.01 0,0.01 0,0.01 0.01,0.02 0.01,0 0.01,0.01 0.02,0.01 0.02,0 0.03,-0.01 0.04,-0.02 0,0 0,0 0,0 0,0 0,0 0,0 0,0 0.01,0 0.01,0.01 0,0 0,0.01 0,0.01 0,0 0,0 0,0 -0.01,0.01 -0.03,0.02 -0.05,0.02 -0.02,0 -0.03,-0.01 -0.04,-0.02 -0.01,-0.01 -0.02,-0.02 -0.02,-0.04 0,-0.02 0.01,-0.03 0.02,-0.05 0.01,-0.01 0.02,-0.02 0.04,-0.02 0.01,0 0.03,0.01 0.04,0.02 0.01,0.01 0.01,0.03 0.01,0.04zm-0.03 -0.01c0,0 0,-0.01 0,-0.01 -0.01,-0.01 -0.02,-0.01 -0.02,-0.01 -0.01,0 -0.02,0 -0.02,0.01 -0.01,0 -0.01,0.01 -0.01,0.02 0,0 0,0 0,0 0.02,0 0.03,0 0.05,0 0,0 0,-0.01 0,-0.01zm0.15 -0.08c0,0 0,0 -0.01,0.01 0,0 0,0.01 0,0.01 0,0 0,0 0,0 0,0 -0.01,0 -0.02,0 0,-0.01 -0.01,-0.01 -0.02,-0.01 -0.01,0 -0.02,0.01 -0.02,0.02 0,0.01 0.01,0.02 0.02,0.02 0.02,0.01 0.02,0.02 0.03,0.02 0.01,0.01 0.01,0.02 0.01,0.03 0,0.02 0,0.03 -0.02,0.05 -0.01,0 -0.03,0.01 -0.05,0.01 -0.01,0 -0.01,0 -0.01,0 0,-0.01 0,-0.01 0,-0.02 0,0 -0.01,0 -0.01,-0.01 0,0 0,0 0,0 0,0 0,0 0,0 0.01,0 0.01,0 0.01,0 0.01,0 0.01,0 0.01,0 0.03,0 0.04,-0.01 0.04,-0.03 0,0 0,-0.01 -0.01,-0.02 -0.02,-0.01 -0.03,-0.01 -0.03,-0.01 -0.01,-0.01 -0.02,-0.02 -0.02,-0.04 0,-0.01 0.01,-0.02 0.02,-0.03 0.01,-0.01 0.02,-0.02 0.03,-0.02 0.01,0 0.02,0 0.03,0.01 0.01,0 0.01,0 0.02,0.01 0,0 0,0 0,0zm0.13 0.15c0,0.01 -0.01,0.01 -0.01,0.01 0,0 0,0 -0.01,0 0,0 -0.01,0 -0.01,0 0,0 0,0 0,-0.01 0,0 0,-0.01 0,-0.02 0,0 0,-0.01 0,-0.01 0,-0.01 0,-0.01 0,-0.02 0,-0.01 0,-0.01 0,-0.02 0,-0.01 -0.01,-0.02 -0.02,-0.02 -0.01,0 -0.01,0 -0.02,0.01 -0.01,0 -0.01,0.01 -0.01,0.01l0 0.07c0,0.01 0,0.01 -0.01,0.01 0,0 0,0 -0.01,0 0,0 -0.01,0 -0.01,0 0,0 0,0 0,-0.01l0 -0.06c0,-0.01 0,-0.03 0,-0.06 0,-0.01 0,-0.02 -0.01,-0.04 0,0 0,0 0,0 0,0 0,0 0.01,-0.01 0,0 0,0 0.01,0 0,0 0,0 0.01,0 0,0 0,0 0,0 0.01,0 0.01,0 0.01,0 0,0.01 0,0.02 0,0.04 -0.01,0.01 -0.01,0.03 -0.01,0.03 0,0.01 0,0.01 0.01,0.01 0,-0.01 0,-0.01 0.01,-0.02 0.01,0 0.02,0 0.03,0 0.01,0 0.02,0 0.03,0.01 0,0.01 0,0.02 0,0.03 0,0 0,0.01 0,0.01 0,0.01 0,0.01 0,0.02 0,0 0,0.01 0,0.02 0.01,0.01 0.01,0.02 0.01,0.02zm0.13 -0.05c0,0.01 -0.01,0.03 -0.02,0.04 -0.01,0.01 -0.02,0.02 -0.04,0.02 -0.02,0 -0.03,-0.01 -0.04,-0.02 -0.01,-0.01 -0.02,-0.03 -0.02,-0.04 0,-0.02 0.01,-0.03 0.02,-0.05 0.01,-0.01 0.02,-0.01 0.04,-0.01 0.02,0 0.03,0 0.04,0.01 0.01,0.02 0.02,0.03 0.02,0.05zm-0.03 0c0,-0.01 0,-0.02 -0.01,-0.03 0,-0.01 -0.01,-0.01 -0.02,-0.01 -0.01,0 -0.02,0 -0.02,0.01 -0.01,0.01 -0.01,0.02 -0.01,0.03 0,0.01 0,0.02 0.01,0.02 0,0.01 0.01,0.01 0.02,0.01 0.01,0 0.02,0 0.02,-0.01 0.01,0 0.01,-0.01 0.01,-0.02zm0.15 -0.01c0,0.01 0,0.01 -0.01,0.01 0,0 -0.03,0.01 -0.07,0.01 0,0.01 0,0.01 0.01,0.02 0.01,0 0.01,0.01 0.02,0.01 0.01,0 0.03,-0.01 0.04,-0.02 0,0 0,0 0,0 0,0 0,0 0,0 0,0 0,0 0.01,0.01 0,0 0,0.01 0,0.01 0,0 0,0 0,0 -0.01,0.01 -0.03,0.02 -0.05,0.02 -0.02,0 -0.03,-0.01 -0.04,-0.02 -0.01,-0.01 -0.02,-0.02 -0.02,-0.04 0,-0.02 0,-0.03 0.02,-0.05 0.01,-0.01 0.02,-0.02 0.04,-0.02 0.01,0 0.03,0.01 0.04,0.02 0.01,0.01 0.01,0.03 0.01,0.04zm-0.03 -0.01c0,0 0,-0.01 -0.01,-0.01 0,-0.01 -0.01,-0.01 -0.01,-0.01 -0.01,0 -0.02,0 -0.02,0.01 -0.01,0 -0.01,0.01 -0.01,0.02 0,0 0,0 0,0 0.01,0 0.03,0 0.04,0 0.01,0 0.01,-0.01 0.01,-0.01zm0.11 0.04c0,0.01 -0.01,0.02 -0.02,0.03 -0.01,0 -0.02,0.01 -0.03,0.01 -0.01,0 -0.01,0 -0.01,0 0,0 0,0 0,-0.01 0,0 0,0 0,-0.01 0,0 0,0 0,0 0,-0.01 0,-0.01 0,-0.01 0,0 0,0 0,0 0.01,0 0.01,0 0.01,0 0.01,0 0.02,0 0.02,-0.01 0,0 0,-0.01 -0.01,-0.01 -0.01,-0.01 -0.02,-0.01 -0.02,-0.01 -0.01,-0.01 -0.01,-0.02 -0.01,-0.03 0,-0.01 0.01,-0.02 0.02,-0.03 0,0 0.01,0 0.03,0 0,0 0,0 0,0 0,0 0,0 0,0.01 0,0 0.01,0.01 0.01,0.01 0,0 -0.01,0 -0.01,0 0,0 -0.01,0 -0.01,0 -0.01,0 -0.01,0.01 -0.01,0.01 0,0 0,0.01 0.01,0.01 0.01,0.01 0.01,0.01 0.02,0.01 0,0.01 0.01,0.02 0.01,0.03z"/>
 </g>
</svg>
